<svg width="18" height="18" viewBox="0 0 18 18" fill="none" xmlns="http://www.w3.org/2000/svg">
<g clip-path="url(#clip0_469_3416)">
<path d="M2.59946 10.3853C2.71966 10.4607 2.85879 10.5005 3.0007 10.5H8.25011C8.37142 10.4997 8.491 10.5287 8.59862 10.5847C8.70623 10.6407 8.79866 10.7219 8.86798 10.8215C8.93729 10.9211 8.98142 11.036 8.99659 11.1563C9.01175 11.2767 8.99749 11.399 8.95504 11.5126L7.5152 16.0279C7.49264 16.1099 7.49863 16.1971 7.53219 16.2753C7.56575 16.3535 7.62488 16.4179 7.69988 16.458C7.77487 16.4981 7.86128 16.5116 7.94491 16.4961C8.02854 16.4806 8.10443 16.4372 8.16012 16.3729L15.5843 8.72244C15.6737 8.61222 15.73 8.47888 15.7466 8.33793C15.7633 8.19697 15.7396 8.05418 15.6784 7.92615C15.6171 7.79812 15.5208 7.6901 15.4006 7.61464C15.2804 7.53918 15.1413 7.49939 14.9994 7.49987H9.74995C9.62864 7.50026 9.50906 7.47122 9.40144 7.41523C9.29383 7.35925 9.2014 7.27799 9.13208 7.17842C9.06277 7.07885 9.01864 6.96396 9.00347 6.84359C8.98831 6.72321 9.00257 6.60096 9.04503 6.48731L10.4849 1.97204C10.5074 1.89002 10.5014 1.80277 10.4679 1.72461C10.4343 1.64644 10.3752 1.58201 10.3002 1.54189C10.2252 1.50177 10.1388 1.48834 10.0551 1.50381C9.97152 1.51928 9.89563 1.56273 9.83994 1.62702L2.41577 9.27747C2.32636 9.3877 2.27006 9.52104 2.25341 9.66199C2.23676 9.80295 2.26044 9.94573 2.32169 10.0738C2.38295 10.2018 2.47927 10.3098 2.59946 10.3853Z" stroke="white" stroke-width="2" stroke-linecap="round"/>
</g>
<defs>
<clipPath id="clip0_469_3416">
<rect width="18" height="18" fill="white"/>
</clipPath>
</defs>
</svg>
