<svg width="40" height="40" viewBox="0 0 40 40" fill="none" xmlns="http://www.w3.org/2000/svg">
<path d="M30.5933 35.1002L18.7567 23.2435C18.1367 23.5302 17.5044 23.7557 16.86 23.9202C16.2156 24.0846 15.5317 24.1668 14.8083 24.1668C12.265 24.1668 10.1017 23.2746 8.31833 21.4902C6.53389 19.7057 5.64166 17.5424 5.64166 15.0002C5.64166 14.2779 5.72166 13.5829 5.88166 12.9152C6.04166 12.2474 6.27555 11.6068 6.58333 10.9935L12.475 16.8202L16.6283 12.6668L10.865 6.84016C11.4783 6.53239 12.1083 6.28794 12.755 6.10683C13.4017 5.92461 14.0861 5.8335 14.8083 5.8335C17.3506 5.8335 19.5139 6.72572 21.2983 8.51016C23.0828 10.2946 23.975 12.4579 23.975 15.0002C23.975 15.7668 23.8978 16.4724 23.7433 17.1168C23.59 17.7613 23.3594 18.3724 23.0517 18.9502L34.9067 30.7852L30.5933 35.1002ZM30.5933 32.7218L32.5183 30.7952L20.9867 19.2618C21.4233 18.6641 21.7528 17.9974 21.975 17.2618C22.1972 16.5263 22.3083 15.7724 22.3083 15.0002C22.3083 12.9702 21.5222 11.1502 19.95 9.54016C18.3789 7.93016 16.3633 7.27794 13.9033 7.5835L18.9867 12.6668L12.475 19.1802L7.39166 14.0968C7.14944 16.7913 7.84388 18.8652 9.475 20.3185C11.1072 21.7729 12.885 22.5002 14.8083 22.5002C15.5517 22.5002 16.29 22.3946 17.0233 22.1835C17.7567 21.9724 18.4361 21.6407 19.0617 21.1885L30.5933 32.7218Z" fill="white"/>
</svg>
