<svg width="44" height="44" viewBox="0 0 44 44" fill="none" xmlns="http://www.w3.org/2000/svg">
<rect width="44" height="44" rx="22" fill="white" fill-opacity="0.101961"/>
<path d="M28.8694 20.1308C27.9317 19.193 26.6598 18.6662 25.3336 18.6662C24.0074 18.6662 22.7356 19.193 21.7978 20.1308C20.86 21.0685 20.3332 22.3403 20.3332 23.6664V29.5H23.6668V23.6664C23.6668 23.2244 23.8424 22.8005 24.155 22.4879C24.4676 22.1753 24.8916 21.9997 25.3336 21.9997C25.7757 21.9997 26.1996 22.1753 26.5122 22.4879C26.8248 22.8005 27.0004 23.2244 27.0004 23.6664V29.5H30.334V23.6664C30.334 22.3403 29.8072 21.0685 28.8694 20.1308Z" stroke="white" stroke-width="2" stroke-linecap="round"/>
<path d="M16.9996 19.4996H13.666V29.5H16.9996V19.4996Z" stroke="white" stroke-width="2" stroke-linecap="round"/>
<path d="M15.3328 16.9995C16.2534 16.9995 16.9996 16.2533 16.9996 15.3328C16.9996 14.4122 16.2534 13.666 15.3328 13.666C14.4123 13.666 13.666 14.4122 13.666 15.3328C13.666 16.2533 14.4123 16.9995 15.3328 16.9995Z" stroke="white" stroke-width="2" stroke-linecap="round"/>
</svg>
