<svg width="60" height="60" viewBox="0 0 60 60" fill="none" xmlns="http://www.w3.org/2000/svg">
<path d="M26.65 26.65C25.7581 27.5372 25.2546 28.742 25.25 30C25.25 31.2598 25.7504 32.468 26.6412 33.3588C27.532 34.2496 28.7402 34.75 30 34.75C31.258 34.7454 32.4628 34.2419 33.35 33.35" stroke="#B4243B" stroke-width="3" stroke-linecap="round" stroke-linejoin="round"/>
<path d="M30 15.75C27.1816 15.75 24.4265 16.5857 22.0831 18.1516C19.7397 19.7174 17.9133 21.9429 16.8347 24.5468C15.7562 27.1506 15.474 30.0158 16.0238 32.78C16.5737 35.5443 17.9308 38.0834 19.9237 40.0763C21.9166 42.0692 24.4557 43.4264 27.22 43.9762C29.9842 44.526 32.8494 44.2438 35.4532 43.1653C38.0571 42.0867 40.2826 40.2603 41.8484 37.9169C43.4143 35.5735 44.25 32.8184 44.25 30" stroke="#B4243B" stroke-width="3" stroke-linecap="round" stroke-linejoin="round"/>
<path d="M30 6.25C25.3027 6.25 20.7109 7.64291 16.8052 10.2526C12.8995 12.8623 9.85545 16.5715 8.05787 20.9113C6.26029 25.251 5.78996 30.0263 6.70636 34.6334C7.62276 39.2404 9.88473 43.4723 13.2062 46.7938C16.5277 50.1153 20.7596 52.3773 25.3666 53.2937C29.9737 54.2101 34.749 53.7397 39.0887 51.9421C43.4285 50.1446 47.1377 47.1005 49.7474 43.1948C52.3571 39.2891 53.75 34.6973 53.75 30M38.8125 21.19L32.375 27.625" stroke="#B4243B" stroke-width="3" stroke-linecap="round" stroke-linejoin="round"/>
<path d="M52.3501 14.61L44.2501 15.75L45.3901 7.64999C45.3984 7.55591 45.3785 7.46147 45.333 7.37874C45.2874 7.29601 45.2182 7.22874 45.1342 7.18554C45.0502 7.14233 44.9552 7.12515 44.8614 7.13619C44.7676 7.14722 44.6792 7.18598 44.6076 7.24749L39.2376 12.59C38.686 13.1455 38.2803 13.8288 38.0565 14.579C37.8328 15.3292 37.7979 16.1231 37.9551 16.89L38.8101 21.19L43.1101 22.0425C43.877 22.1996 44.6708 22.1648 45.421 21.941C46.1712 21.7173 46.8545 21.3116 47.4101 20.76L52.7501 15.3925C52.8118 15.3207 52.8506 15.232 52.8616 15.1379C52.8726 15.0439 52.8552 14.9487 52.8117 14.8645C52.7681 14.7804 52.7005 14.7112 52.6173 14.6659C52.5342 14.6205 52.4393 14.6011 52.3451 14.61" stroke="#B4243B" stroke-width="3" stroke-linecap="round" stroke-linejoin="round"/>
</svg>
