<svg width="44" height="44" viewBox="0 0 44 44" fill="none" xmlns="http://www.w3.org/2000/svg">
<rect width="44" height="44" rx="22" fill="white" fill-opacity="0.101961"/>
<g clip-path="url(#clip0_629_214)">
<path d="M26.5837 17.4163H26.592M17.833 13.666H26.167C28.4684 13.666 30.334 15.5316 30.334 17.833V26.167C30.334 28.4684 28.4684 30.334 26.167 30.334H17.833C15.5316 30.334 13.666 28.4684 13.666 26.167V17.833C13.666 15.5316 15.5316 13.666 17.833 13.666ZM25.3334 21.4752C25.4362 22.1688 25.3178 22.8772 24.9948 23.4996C24.6719 24.1219 24.1609 24.6267 23.5346 24.9419C22.9083 25.2571 22.1985 25.3669 21.5062 25.2555C20.8139 25.1441 20.1744 24.8172 19.6786 24.3214C19.1828 23.8256 18.856 23.1861 18.7446 22.4938C18.6332 21.8015 18.7429 21.0918 19.0581 20.4655C19.3734 19.8391 19.8781 19.3282 20.5005 19.0052C21.1229 18.6823 21.8312 18.5638 22.5248 18.6667C23.2323 18.7716 23.8873 19.1013 24.393 19.607C24.8988 20.1127 25.2285 20.7677 25.3334 21.4752Z" stroke="white" stroke-width="2" stroke-linecap="round"/>
</g>
<defs>
<clipPath id="clip0_629_214">
<rect width="20" height="20" fill="white" transform="translate(12 12)"/>
</clipPath>
</defs>
</svg>
