<svg width="18" height="18" viewBox="0 0 18 18" fill="none" xmlns="http://www.w3.org/2000/svg">
<g clip-path="url(#clip0_469_3412)">
<path d="M7.25287 3.1026C7.29419 2.66786 7.49612 2.26414 7.81919 1.97031C8.14227 1.67649 8.56329 1.51367 8.99999 1.51367C9.4367 1.51367 9.85771 1.67649 10.1808 1.97031C10.5039 2.26414 10.7058 2.66786 10.7471 3.1026C10.772 3.38344 10.8641 3.65417 11.0157 3.89186C11.1673 4.12955 11.374 4.32721 11.6182 4.46811C11.8624 4.60901 12.137 4.689 12.4186 4.70132C12.7003 4.71363 12.9808 4.6579 13.2364 4.53885C13.6332 4.35869 14.0829 4.33262 14.4979 4.46572C14.9129 4.59882 15.2635 4.88156 15.4815 5.25893C15.6995 5.6363 15.7693 6.08128 15.6773 6.50728C15.5854 6.93328 15.3382 7.30981 14.9839 7.5636C14.7532 7.72549 14.5648 7.94056 14.4348 8.19062C14.3048 8.44068 14.2369 8.71838 14.2369 9.00023C14.2369 9.28207 14.3048 9.55977 14.4348 9.80983C14.5648 10.0599 14.7532 10.275 14.9839 10.4369C15.3382 10.6906 15.5854 11.0672 15.6773 11.4932C15.7693 11.9192 15.6995 12.3642 15.4815 12.7415C15.2635 13.1189 14.9129 13.4016 14.4979 13.5347C14.0829 13.6678 13.6332 13.6418 13.2364 13.4616C12.9808 13.3426 12.7003 13.2868 12.4186 13.2991C12.137 13.3114 11.8624 13.3914 11.6182 13.5323C11.374 13.6732 11.1673 13.8709 11.0157 14.1086C10.8641 14.3463 10.772 14.617 10.7471 14.8979C10.7058 15.3326 10.5039 15.7363 10.1808 16.0301C9.85771 16.324 9.4367 16.4868 8.99999 16.4868C8.56329 16.4868 8.14227 16.324 7.81919 16.0301C7.49612 15.7363 7.29419 15.3326 7.25287 14.8979C7.22808 14.6169 7.13594 14.3461 6.98427 14.1083C6.83259 13.8705 6.62585 13.6728 6.38154 13.5319C6.13724 13.391 5.86257 13.311 5.5808 13.2988C5.29904 13.2865 5.01847 13.3424 4.76287 13.4616C4.36603 13.6418 3.91636 13.6678 3.50137 13.5347C3.08637 13.4016 2.73575 13.1189 2.51773 12.7415C2.29971 12.3642 2.2299 11.9192 2.32189 11.4932C2.41387 11.0672 2.66107 10.6906 3.01537 10.4369C3.24608 10.275 3.43442 10.0599 3.56443 9.80983C3.69445 9.55977 3.76233 9.28207 3.76233 9.00023C3.76233 8.71838 3.69445 8.44068 3.56443 8.19062C3.43442 7.94056 3.24608 7.72549 3.01537 7.5636C2.66157 7.30969 2.41481 6.9333 2.32304 6.50759C2.23128 6.08188 2.30107 5.63726 2.51886 5.26014C2.73664 4.88302 3.08685 4.60034 3.50144 4.46703C3.91602 4.33373 4.36536 4.35933 4.76212 4.53885C5.01769 4.6579 5.29818 4.71363 5.57984 4.70132C5.86151 4.689 6.13607 4.60901 6.38027 4.46811C6.62447 4.32721 6.83114 4.12955 6.98277 3.89186C7.1344 3.65417 7.22653 3.38344 7.25137 3.1026M11.2494 9.00049C11.2494 10.2431 10.242 11.2505 8.99939 11.2505C7.75675 11.2505 6.74939 10.2431 6.74939 9.00049C6.74939 7.75785 7.75675 6.75049 8.99939 6.75049C10.242 6.75049 11.2494 7.75785 11.2494 9.00049Z" stroke="white" stroke-width="2" stroke-linecap="round"/>
</g>
<defs>
<clipPath id="clip0_469_3412">
<rect width="18" height="18" fill="white"/>
</clipPath>
</defs>
</svg>
