<svg width="34" height="34" viewBox="0 0 34 34" fill="none" xmlns="http://www.w3.org/2000/svg">
<path d="M21.208 11.8224C21.3002 11.7516 21.4053 11.6997 21.5175 11.6696C21.6297 11.6394 21.7468 11.6317 21.862 11.6468C21.9771 11.6619 22.0882 11.6996 22.1889 11.7576C22.2895 11.8157 22.3777 11.893 22.4485 11.9851C22.5192 12.0773 22.5712 12.1824 22.6013 12.2946C22.6314 12.4068 22.6391 12.5239 22.624 12.6391C22.6089 12.7542 22.5712 12.8653 22.5132 12.966C22.4551 13.0666 22.3778 13.1548 22.2857 13.2256L21.208 11.8224ZM20.6899 13.3361L20.1506 12.6348L20.1511 12.6345L20.6899 13.3361ZM16.5369 17.6461C16.3509 17.7891 16.1158 17.8524 15.8831 17.822C15.6504 17.7916 15.4394 17.6701 15.2964 17.4841C15.1533 17.2981 15.09 17.0629 15.1204 16.8303C15.1508 16.5976 15.2723 16.3866 15.4583 16.2435L16.5369 17.6461ZM15.4496 16.2502C15.6356 16.1072 15.8708 16.0439 16.1035 16.0742C16.3361 16.1046 16.5472 16.2262 16.6902 16.4121C16.8333 16.5981 16.8965 16.8333 16.8662 17.066C16.8358 17.2986 16.7143 17.5097 16.5283 17.6527L15.4496 16.2502ZM11.4636 21.5478C11.2776 21.6909 11.0424 21.7541 10.8097 21.7238C10.5771 21.6934 10.366 21.5719 10.223 21.3859C10.08 21.1999 10.0167 20.9647 10.047 20.7321C10.0774 20.4994 10.199 20.2883 10.3849 20.1453L11.4636 21.5478ZM22.2857 13.2256L22.2682 13.2391L21.1903 11.836L21.208 11.8224L22.2857 13.2256ZM22.2682 13.2391L22.0601 13.3991L20.9827 11.9957L21.1903 11.836L22.2682 13.2391ZM22.0601 13.3991L21.8526 13.5587L20.7749 12.1555L20.9827 11.9957L22.0601 13.3991ZM21.8526 13.5587L21.6444 13.7185L20.5669 12.3151L20.7749 12.1555L21.8526 13.5587ZM21.6444 13.7185L21.4366 13.8779L20.3589 12.4746L20.5669 12.3151L21.6444 13.7185ZM21.4366 13.8779L21.2288 14.0377L20.1511 12.6345L20.3589 12.4746L21.4366 13.8779ZM21.2293 14.0373L16.5369 17.6461L15.4583 16.2435L20.1506 12.6348L21.2293 14.0373ZM16.5283 17.6527L11.4636 21.5478L10.3849 20.1453L15.4496 16.2502L16.5283 17.6527Z" fill="white"/>
<path d="M12.2746 10.5629L21.0315 11.7062C21.2331 11.7325 21.4276 11.7983 21.6038 11.8997C21.78 12.0012 21.9345 12.1364 22.0584 12.2975C22.1824 12.4587 22.2733 12.6427 22.3262 12.839C22.379 13.0354 22.3927 13.2402 22.3663 13.4418L21.223 22.1988" stroke="white" stroke-width="1.5" stroke-linecap="round" stroke-linejoin="round"/>
</svg>
