<svg width="18" height="18" viewBox="0 0 18 18" fill="none" xmlns="http://www.w3.org/2000/svg">
<g clip-path="url(#clip0_469_3400)">
<path d="M7.5 1.49951V2.99951M10.5 1.49951V2.99951M12 5.99951C12.1989 5.99951 12.3897 6.07853 12.5303 6.21918C12.671 6.35983 12.75 6.5506 12.75 6.74951V12.7495C12.75 13.5452 12.4339 14.3082 11.8713 14.8708C11.3087 15.4334 10.5456 15.7495 9.75 15.7495H5.25C4.45435 15.7495 3.69129 15.4334 3.12868 14.8708C2.56607 14.3082 2.25 13.5452 2.25 12.7495V6.74951C2.25 6.5506 2.32902 6.35983 2.46967 6.21918C2.61032 6.07853 2.80109 5.99951 3 5.99951H13.5C14.2956 5.99951 15.0587 6.31558 15.6213 6.87819C16.1839 7.4408 16.5 8.20386 16.5 8.99951C16.5 9.79516 16.1839 10.5582 15.6213 11.1208C15.0587 11.6834 14.2956 11.9995 13.5 11.9995H12.75M4.5 1.49951V2.99951" stroke="black" stroke-width="2" stroke-linecap="round"/>
</g>
<defs>
<clipPath id="clip0_469_3400">
<rect width="18" height="18" fill="white"/>
</clipPath>
</defs>
</svg>
