<svg width="48" height="48" viewBox="0 0 48 48" fill="none" xmlns="http://www.w3.org/2000/svg">
<path fill-rule="evenodd" clip-rule="evenodd" d="M22.0001 4C25.866 4 29.0001 7.13397 29.0001 10.9999C29.0001 14.7371 26.0715 17.7903 22.3842 17.9896L22.0001 18C18.1341 18 15 14.866 15 10.9999C15 7.26288 17.9286 4.20963 21.616 4.01031L22.0001 4ZM8 40H25.6054C24.8899 38.7636 24.4023 37.4088 24.166 36H12V32.8L12.0104 32.4117C12.2033 28.815 15.0587 25.9999 18.5 25.9999H25.5L25.8664 26.0106C26.2235 26.0315 26.5733 26.0827 26.9134 26.1618C27.9247 24.99 29.1522 24.0241 30.529 23.3169C29.0355 22.4773 27.322 22 25.5 22H18.5L18.0672 22.009C12.469 22.2424 8 26.9844 8 32.8V40ZM19.0001 10.9999C19.0001 9.34309 20.3432 7.99994 22.0001 7.99994C23.6569 7.99994 25.0001 9.34309 25.0001 10.9999C25.0001 12.6568 23.6569 13.9999 22.0001 13.9999C20.3432 13.9999 19.0001 12.6568 19.0001 10.9999ZM30.1222 42.0902L36 38.5L41.8779 42.0902L40.2798 35.3905L45.5106 30.9098L38.6451 30.3594L36 24L33.355 30.3594L26.4895 30.9098L31.7202 35.3905L30.1222 42.0902Z" fill="white"/>
</svg>
