<svg width="18" height="18" viewBox="0 0 18 18" fill="none" xmlns="http://www.w3.org/2000/svg">
<g clip-path="url(#clip0_469_3404)">
<path d="M12.0002 8.99983V12M12.0002 4.49964C12.3981 4.49972 12.7796 4.65782 13.0608 4.93916L16.0611 7.93928C16.3424 8.22053 16.5005 8.60202 16.5006 8.99983V14.25C16.5006 14.6479 16.3425 15.0294 16.0612 15.3108C15.7799 15.5921 15.3983 15.7501 15.0005 15.7501H2.99951C2.60165 15.7501 2.22009 15.5921 1.93876 15.3108C1.65744 15.0294 1.49939 14.6479 1.49939 14.25V8.99983C1.49947 8.60202 1.65758 8.22053 1.93892 7.93928L4.93916 4.93916C5.22043 4.65782 5.60193 4.49972 5.99975 4.49964M12.0002 4.49964H5.99975M12.0002 4.49964V2.99957C12.0002 2.60173 11.8422 2.22019 11.5609 1.93887C11.2795 1.65755 10.898 1.49951 10.5001 1.49951H7.49987C7.10201 1.49951 6.72045 1.65755 6.43912 1.93887C6.1578 2.22019 5.99975 2.60173 5.99975 2.99957V4.49964M1.49939 10.4999H16.5006M5.99975 8.99983V12" stroke="black" stroke-width="2" stroke-linecap="round"/>
</g>
<defs>
<clipPath id="clip0_469_3404">
<rect width="18" height="18" fill="white"/>
</clipPath>
</defs>
</svg>
