<svg width="48" height="48" viewBox="0 0 48 48" fill="none" xmlns="http://www.w3.org/2000/svg">
<path d="M18 21.9999H30M24 27.9999V15.9999M8 22.5039C8 37.8779 21.836 43.2779 23.774 43.9599C23.9247 44.0132 24.0753 44.0132 24.226 43.9599C26.168 43.2999 40 38.0359 40 22.5059V8.60788C40.0004 8.42914 39.941 8.25541 39.8311 8.1144C39.7213 7.97339 39.5674 7.87322 39.394 7.82988L24.194 4.02388C24.0666 3.99204 23.9334 3.99204 23.806 4.02388L8.606 7.82988C8.4326 7.87322 8.2787 7.97339 8.16887 8.1144C8.05903 8.25541 7.99958 8.42914 8 8.60788V22.5039Z" stroke="#B4243B" stroke-width="3" stroke-miterlimit="10" stroke-linecap="round" stroke-linejoin="round"/>
</svg>
