<svg width="40" height="40" viewBox="0 0 40 40" fill="none" xmlns="http://www.w3.org/2000/svg">
<path d="M15.18 19.5965L18.9867 15.7799L15.565 12.3465L13.6333 14.2765L12.4533 13.0965L14.375 11.1665L11.1217 7.9132L7.305 11.7299L15.18 19.5965ZM28.2367 32.6632L32.0533 28.8465L28.8017 25.5932L26.8717 27.5132L25.6933 26.3332L27.6117 24.4032L24.2117 21.0132L20.4033 24.8199L28.2367 32.6632ZM11.9217 33.3332H6.66667V28.0765L13.99 20.7532L5 11.7315L11.1217 5.60986L20.1867 14.6415L27.6317 7.18653C27.815 7.00209 28.0083 6.86931 28.2117 6.7882C28.415 6.70709 28.6317 6.66653 28.8617 6.66653C29.0917 6.66653 29.3083 6.70709 29.5117 6.7882C29.715 6.86931 29.9089 7.00209 30.0933 7.18653L32.8133 10.0132C32.9978 10.1965 33.1256 10.3899 33.1967 10.5932C33.2678 10.7965 33.3028 11.0132 33.3017 11.2432C33.3006 11.4732 33.265 11.6832 33.195 11.8732C33.125 12.0632 32.9983 12.2499 32.815 12.4332L25.4317 19.8565L34.3917 28.8782L28.2667 34.9999L19.245 26.0099L11.9217 33.3332ZM8.33333 31.6665H11.2117L27.5783 15.3099L24.6883 12.4232L8.33333 28.7882V31.6665ZM26.1533 13.8565L24.69 12.4232L27.5767 15.3115L26.1533 13.8565Z" fill="white"/>
</svg>
