<svg width="40" height="40" viewBox="0 0 40 40" fill="none" xmlns="http://www.w3.org/2000/svg">
<path d="M9.11644 19.1167C8.88357 19.3517 8.75293 19.6692 8.75293 20C8.75293 20.3309 8.88357 20.6483 9.11644 20.8834L17.4498 29.2167C17.5642 29.3395 17.7022 29.438 17.8555 29.5063C18.0089 29.5746 18.1744 29.6114 18.3422 29.6143C18.5101 29.6173 18.6768 29.5864 18.8324 29.5236C18.9881 29.4607 19.1295 29.3671 19.2482 29.2484C19.3669 29.1297 19.4604 28.9883 19.5233 28.8327C19.5862 28.677 19.6171 28.5103 19.6141 28.3425C19.6111 28.1747 19.5744 28.0091 19.5061 27.8558C19.4378 27.7025 19.3393 27.5645 19.2164 27.45L13.0164 21.25H29.9998C30.3313 21.25 30.6492 21.1183 30.8837 20.8839C31.1181 20.6495 31.2498 20.3315 31.2498 20C31.2498 19.6685 31.1181 19.3506 30.8837 19.1161C30.6492 18.8817 30.3313 18.75 29.9998 18.75H13.0164L19.2164 12.55C19.4372 12.3131 19.5574 11.9997 19.5517 11.6758C19.546 11.352 19.4148 11.043 19.1858 10.814C18.9568 10.585 18.6478 10.4538 18.324 10.4481C18.0001 10.4424 17.6867 10.5626 17.4498 10.7834L9.11644 19.1167Z" fill="white"/>
</svg>
