<svg width="40" height="40" viewBox="0 0 40 40" fill="none" xmlns="http://www.w3.org/2000/svg">
<path d="M30.8836 19.1167C31.1164 19.3517 31.2471 19.6692 31.2471 20C31.2471 20.3309 31.1164 20.6483 30.8836 20.8834L22.5502 29.2167C22.4358 29.3395 22.2978 29.438 22.1445 29.5063C21.9911 29.5746 21.8256 29.6114 21.6578 29.6143C21.4899 29.6173 21.3232 29.5864 21.1676 29.5236C21.0119 29.4607 20.8705 29.3671 20.7518 29.2484C20.6331 29.1297 20.5396 28.9883 20.4767 28.8327C20.4138 28.677 20.3829 28.5103 20.3859 28.3425C20.3889 28.1747 20.4256 28.0091 20.4939 27.8558C20.5622 27.7025 20.6607 27.5645 20.7836 27.45L26.9836 21.25H10.0002C9.6687 21.25 9.35076 21.1183 9.11634 20.8839C8.88192 20.6495 8.75023 20.3315 8.75023 20C8.75023 19.6685 8.88192 19.3506 9.11634 19.1161C9.35076 18.8817 9.6687 18.75 10.0002 18.75H26.9836L20.7836 12.55C20.5628 12.3131 20.4426 11.9997 20.4483 11.6758C20.454 11.352 20.5852 11.043 20.8142 10.814C21.0432 10.585 21.3522 10.4538 21.676 10.4481C21.9999 10.4424 22.3133 10.5626 22.5502 10.7834L30.8836 19.1167Z" fill="#B4243B"/>
</svg>
