<svg width="40" height="40" viewBox="0 0 40 40" fill="none" xmlns="http://www.w3.org/2000/svg">
<path d="M9.11644 19.1166C8.88357 19.3516 8.75293 19.6691 8.75293 19.9999C8.75293 20.3308 8.88357 20.6482 9.11644 20.8832L17.4498 29.2166C17.5642 29.3394 17.7022 29.4379 17.8555 29.5062C18.0089 29.5745 18.1744 29.6113 18.3422 29.6142C18.5101 29.6172 18.6768 29.5863 18.8324 29.5234C18.9881 29.4606 19.1295 29.367 19.2482 29.2483C19.3669 29.1296 19.4604 28.9882 19.5233 28.8326C19.5862 28.6769 19.6171 28.5102 19.6141 28.3424C19.6111 28.1745 19.5744 28.009 19.5061 27.8557C19.4378 27.7023 19.3393 27.5643 19.2164 27.4499L13.0164 21.2499H29.9998C30.3313 21.2499 30.6492 21.1182 30.8837 20.8838C31.1181 20.6494 31.2498 20.3314 31.2498 19.9999C31.2498 19.6684 31.1181 19.3504 30.8837 19.116C30.6492 18.8816 30.3313 18.7499 29.9998 18.7499H13.0164L19.2164 12.5499C19.4372 12.3129 19.5574 11.9995 19.5517 11.6757C19.546 11.3519 19.4148 11.0429 19.1858 10.8139C18.9568 10.5848 18.6478 10.4537 18.324 10.4479C18.0001 10.4422 17.6867 10.5624 17.4498 10.7832L9.11644 19.1166Z" fill="black"/>
</svg>
