<svg width="40" height="40" viewBox="0 0 40 40" fill="none" xmlns="http://www.w3.org/2000/svg">
<path d="M30.8836 19.1166C31.1164 19.3516 31.2471 19.6691 31.2471 19.9999C31.2471 20.3308 31.1164 20.6482 30.8836 20.8832L22.5502 29.2166C22.4358 29.3394 22.2978 29.4379 22.1445 29.5062C21.9911 29.5745 21.8256 29.6113 21.6578 29.6142C21.4899 29.6172 21.3232 29.5863 21.1676 29.5234C21.0119 29.4606 20.8705 29.367 20.7518 29.2483C20.6331 29.1296 20.5396 28.9882 20.4767 28.8326C20.4138 28.6769 20.3829 28.5102 20.3859 28.3424C20.3889 28.1745 20.4256 28.009 20.4939 27.8557C20.5622 27.7023 20.6607 27.5643 20.7836 27.4499L26.9836 21.2499H10.0002C9.6687 21.2499 9.35076 21.1182 9.11634 20.8838C8.88192 20.6494 8.75023 20.3314 8.75023 19.9999C8.75023 19.6684 8.88192 19.3504 9.11634 19.116C9.35076 18.8816 9.6687 18.7499 10.0002 18.7499H26.9836L20.7836 12.5499C20.5628 12.3129 20.4426 11.9995 20.4483 11.6757C20.454 11.3519 20.5852 11.0429 20.8142 10.8139C21.0432 10.5848 21.3522 10.4537 21.676 10.4479C21.9999 10.4422 22.3133 10.5624 22.5502 10.7832L30.8836 19.1166Z" fill="black"/>
</svg>
